<?xml version="1.0" encoding="UTF-8" standalone="no"?>
<svg width="188px" height="53px" viewBox="0 0 188 53" version="1.1" xmlns="http://www.w3.org/2000/svg" xmlns:xlink="http://www.w3.org/1999/xlink" xmlns:sketch="http://www.bohemiancoding.com/sketch/ns">
    <!-- Generator: Sketch 3.2.2 (9983) - http://www.bohemiancoding.com/sketch -->
    <title>logo-eps-prime</title>
    <desc>Created with Sketch.</desc>
    <defs></defs>
    <g id="Page-1" stroke="none" stroke-width="1" fill="none" fill-rule="evenodd" sketch:type="MSPage">
        <g id="logo-eps-prime" sketch:type="MSLayerGroup" fill="#C73D41">
            <g id="Group-3" sketch:type="MSShapeGroup">
                <path d="M54.055802,0.0679701493 C53.9738908,0.0561268657 49.5,5.17036567 49.5,5.17036567 L25.640273,31.8002463 L40.5522184,40.2115522 L49.5,13.8453134 C49.5,13.8453134 54.2283276,0.0921716418 54.055802,0.0679701493 L54.055802,0.0679701493 Z M48.0880546,44.4617463 L40.5522184,40.2115522 L36.3394198,52.6258881 L40.8322526,52.6258881 L48.0880546,52.6258881 C48.0880546,52.6258881 62.9022184,52.5862388 62.7670648,52.6258881 C62.6360068,52.6650224 48.0880546,44.4617463 48.0880546,44.4617463 L48.0880546,44.4617463 Z M0,17.2716269 C0,17.4425821 5.56791809,28.6432388 5.56791809,28.6432388 L13.8389078,44.9710075 L25.640273,31.8002463 L5.56791809,20.4785821 C5.56791809,20.4785821 0,17.1856343 0,17.2716269 L0,17.2716269 Z M17.7163823,52.6258881 L13.8389078,44.9710075 L6.98037543,52.6258881 L17.7163823,52.6258881 L17.7163823,52.6258881 Z" id="Fill-1"></path>
            </g>
            <text id="PRIME" sketch:type="MSTextLayer" font-family="Nexa Bold" font-size="36.8372093" font-weight="bold" letter-spacing="0.180000007">
                <tspan x="74.5361775" y="52.095933">PRIME</tspan>
            </text>
        </g>
    </g>
</svg>